<svg width="712" height="714" viewBox="0 0 712 714" fill="none" xmlns="http://www.w3.org/2000/svg">
<path opacity="0.3" d="M355.8 711.6C552.303 711.6 711.6 552.303 711.6 355.8C711.6 159.297 552.303 0 355.8 0C159.297 0 0 159.297 0 355.8C0 552.303 159.297 711.6 355.8 711.6Z" fill="#F2F2F2"/>
<mask id="mask0" style="mask-type:alpha" maskUnits="userSpaceOnUse" x="0" y="2" width="712" height="712">
<path d="M355.8 713.6C552.303 713.6 711.6 554.303 711.6 357.8C711.6 161.297 552.303 2 355.8 2C159.297 2 0 161.297 0 357.8C0 554.303 159.297 713.6 355.8 713.6Z" fill="#6622DD"/>
</mask>
<g mask="url(#mask0)">
<path d="M282.6 587.7C282.6 587.7 109.7 598.2 14.6001 664.5V717.5C14.6001 728.7 18.4 733.7 28 733.7H684.3C693.5 733.7 697 729 697 718.4V664.5C697 664.5 577.3 587.7 429.9 587.7C282.5 587.7 282.6 587.7 282.6 587.7Z" fill="#6622DD"/>
<path d="M546.2 313.1C546.2 171.5 472.5 84.6 355.8 84.6C234.9 84.6 165.4 180.9 165.4 313.1C165.4 418.3 231.9 521.6 355.8 521.6C481.4 521.5 546.2 418.2 546.2 313.1Z" fill="#C18481"/>
<path d="M441.2 589C441.2 589 420.9 614.5 355.9 614.5C293 614.5 270.5 589 270.5 589V462H441.2V589Z" fill="#C18481"/>
<path d="M271.6 503.7C271.6 503.7 332.1 536.7 416.1 515.3" stroke="black" stroke-width="3" stroke-miterlimit="10" stroke-linecap="round"/>
<path d="M338.7 520.6L270.5 566V502.6C270.5 502.6 302 520.6 338.7 520.6Z" fill="black" fill-opacity="0.3" style="mix-blend-mode:multiply"/>
<path d="M164.3 397.7C196.885 397.7 223.3 371.285 223.3 338.7C223.3 306.115 196.885 279.7 164.3 279.7C131.715 279.7 105.3 306.115 105.3 338.7C105.3 371.285 131.715 397.7 164.3 397.7Z" fill="#C18481"/>
<path d="M547.2 397.7C579.785 397.7 606.2 371.285 606.2 338.7C606.2 306.115 579.785 279.7 547.2 279.7C514.615 279.7 488.2 306.115 488.2 338.7C488.2 371.285 514.615 397.7 547.2 397.7Z" fill="#C18481"/>
<path d="M136.5 322.7C136.5 322.7 159.8 314.2 175.3 340.6" stroke="black" stroke-width="3" stroke-miterlimit="10" stroke-linecap="round"/>
<path d="M580.3 322.7C580.3 322.7 557 314.2 541.5 340.6" stroke="black" stroke-width="3" stroke-miterlimit="10" stroke-linecap="round"/>
<path d="M275 319.8C281.296 319.8 286.4 312.278 286.4 303C286.4 293.722 281.296 286.2 275 286.2C268.704 286.2 263.6 293.722 263.6 303C263.6 312.278 268.704 319.8 275 319.8Z" fill="black"/>
<path d="M433.8 319.8C440.096 319.8 445.2 312.278 445.2 303C445.2 293.722 440.096 286.2 433.8 286.2C427.504 286.2 422.4 293.722 422.4 303C422.4 312.278 427.504 319.8 433.8 319.8Z" fill="black"/>
<path d="M355.8 286.3C355.8 286.3 340 346.1 341.2 358.6C342.2 368.9 355.8 376.7 355.8 376.7" stroke="black" stroke-width="3" stroke-miterlimit="10" stroke-linecap="round"/>
<path d="M383.9 409.2C377.9 418 367.9 423.8 356.4 423.8C344.1 423.8 333.4 417.1 327.7 407.2" stroke="black" stroke-width="3" stroke-miterlimit="10" stroke-linecap="round"/>
<path d="M486.3 142.4C486.3 142.4 458.7 187.1 373.7 179.7C373.7 179.7 422.4 162.9 430 142.4H486.3Z" fill="black"/>
<path d="M479.2 129.4C479.2 129.4 487.2 220.7 546.2 279.7C546.2 279.7 556.3 155 479.2 129.4Z" fill="black"/>
<path d="M234.5 129.4C234.5 129.4 226.5 220.7 167.5 279.7C167.5 279.7 157.4 155 234.5 129.4Z" fill="black"/>
<path d="M495.3 143.8C495.3 143.8 344.3 204.9 171.3 143.8C171.3 143.8 240.3 72.9 332.6 72.9C461.6 72.8 495.3 143.8 495.3 143.8Z" fill="black"/>
<path d="M279.1 256.8C279.1 256.8 263.9 247.9 253.1 262.7" stroke="black" stroke-width="3" stroke-miterlimit="10" stroke-linecap="round"/>
<path d="M428.2 256.8C428.2 256.8 443.4 247.9 454.2 262.7" stroke="black" stroke-width="3" stroke-miterlimit="10" stroke-linecap="round"/>
</g>
<path d="M272 348C308.451 348 338 318.451 338 282H206C206 318.451 235.549 348 272 348Z" fill="black" fill-opacity="0.88"/>
<path d="M443 348C479.451 348 509 318.451 509 282H377C377 318.451 406.549 348 443 348Z" fill="black" fill-opacity="0.88"/>
<path d="M332 283.5H379.5" stroke="black" stroke-width="3"/>
<path d="M504 283.5L546 278" stroke="black" stroke-width="3"/>
<path d="M210 283.5L168 278" stroke="black" stroke-width="3"/>
<path d="M226.447 302.991C228.238 309.923 235.566 324.83 250.553 329.009" stroke="white" stroke-width="3" stroke-linecap="round" stroke-linejoin="round"/>
<path d="M399 302.991C400.825 309.892 408.159 324.793 423.106 329.009" stroke="white" stroke-width="3" stroke-linecap="round" stroke-linejoin="round"/>
</svg>
